<svg id="Layer_1" data-name="Layer 1" xmlns="http://www.w3.org/2000/svg" viewBox="0 0 242.99 90"><path d="M27.87,8V52.5q0,10.2-5.7,16.75A18.46,18.46,0,0,1,7.57,75.8a18.85,18.85,0,0,1-6.1-1.1V55.6a7.37,7.37,0,0,0,2.7.6q3.9,0,3.9-6.3V8Z" transform="translate(-1.47 -8)" style="fill:#1e1e1e"/><path d="M85.77,53.2H58.07a12,12,0,0,1-.7-4,13.07,13.07,0,0,1,.9-4.6h9.3q-.9-5.51-6.1-5.5A6.67,6.67,0,0,0,56,42a12,12,0,0,0-2.2,7.5,13.37,13.37,0,0,0,2.1,7.75,6.33,6.33,0,0,0,5.4,3c1.87,0,3.63-.93,5.3-2.8L77,70.1a25.43,25.43,0,0,1-16.2,5.7,24.88,24.88,0,0,1-18.15-7.35A24.48,24.48,0,0,1,35.17,50.3a24.47,24.47,0,0,1,7.4-18A25.07,25.07,0,0,1,61,24.9a24.29,24.29,0,0,1,17.75,7.15A23.94,23.94,0,0,1,86,49.8C86,50.07,85.9,51.2,85.77,53.2Z" transform="translate(-1.47 -8)" style="fill:#1e1e1e"/><path d="M136.67,74.7h-18.2V47.1q0-4.2-3.5-4.2t-3.4,4.2V74.7H93.27V47.5a22.29,22.29,0,0,1,6.3-16A20.53,20.53,0,0,1,115,24.9q10,0,15.85,6.35t5.85,17.65Z" transform="translate(-1.47 -8)" style="fill:#4969b8"/><path d="M190.77,74.7h-18.2V47.1q0-4.2-3.5-4.2t-3.4,4.2V74.7h-18.3V47.5a22.29,22.29,0,0,1,6.3-16,20.53,20.53,0,0,1,15.4-6.55q10,0,15.85,6.35t5.85,17.65Z" transform="translate(-1.47 -8)" style="fill:#4969b8"/><path d="M207.77,96.1V80.2a17.5,17.5,0,0,0,6.7,1.5q8.49,0,11.3-10a18.38,18.38,0,0,1-9.5,2.8,14.1,14.1,0,0,1-11-5q-4.41-5-4.4-12.95V26h18.3V52.2q0,4.3,3.6,4.3c2.26,0,3.4-1.6,3.4-4.8V26h18.3V69.5q0,13.2-8,20.85A25.87,25.87,0,0,1,218.07,98,29.76,29.76,0,0,1,207.77,96.1Z" transform="translate(-1.47 -8)" style="fill:#1e1e1e"/></svg>