<svg id="Layer_1" data-name="Layer 1" xmlns="http://www.w3.org/2000/svg" viewBox="0 0 50 50"><g id="WA_Logo" data-name="WA Logo"><path d="M36.52,13.16A15.64,15.64,0,0,0,11.9,32l-2.22,8.1L18,38a15.71,15.71,0,0,0,7.48,1.9h0a15.65,15.65,0,0,0,11.07-26.7ZM25.45,37.22h0a13,13,0,0,1-6.62-1.81l-.48-.28-4.92,1.29,1.32-4.8-.31-.49a13,13,0,1,1,11,6.09Zm7.13-9.73c-.39-.2-2.31-1.14-2.67-1.27s-.62-.2-.88.19-1,1.27-1.23,1.53-.46.3-.85.1a10.56,10.56,0,0,1-3.14-1.94,11.58,11.58,0,0,1-2.18-2.7c-.23-.4,0-.61.17-.8s.39-.46.59-.69a2.67,2.67,0,0,0,.39-.65.7.7,0,0,0,0-.68c-.1-.2-.88-2.12-1.21-2.9S20.9,17,20.66,17s-.49,0-.75,0a1.44,1.44,0,0,0-1,.49,4.38,4.38,0,0,0-1.37,3.26,7.56,7.56,0,0,0,1.6,4c.2.26,2.76,4.21,6.68,5.9A23.47,23.47,0,0,0,28,31.5a5.37,5.37,0,0,0,2.47.16A4,4,0,0,0,33.1,29.8a3.22,3.22,0,0,0,.23-1.86C33.23,27.78,33,27.68,32.58,27.49Z" style="fill:#fff;fill-rule:evenodd"/></g></svg>