<svg id="Layer_1" data-name="Layer 1" xmlns="http://www.w3.org/2000/svg" viewBox="0 0 50 50"><path d="M27.4,21.83c.41-.46.74-.92,1.16-1.32a6.36,6.36,0,0,1,4.58-1.8,10,10,0,0,1,2.88.35,5.63,5.63,0,0,1,4,4.2,17.44,17.44,0,0,1,.53,4.82c0,3.42,0,6.85,0,10.27,0,.32-.09.41-.4.4h-5.3c-.31,0-.37-.09-.37-.38q0-4.89,0-9.78a9,9,0,0,0-.28-2.42,2.73,2.73,0,0,0-3-2.13,3.27,3.27,0,0,0-3.44,3.27,11.23,11.23,0,0,0-.1,1.53c0,3.17,0,6.34,0,9.51,0,.31-.08.41-.4.4H21.93c-.28,0-.37-.07-.37-.36q0-9.41,0-18.82c0-.31.11-.38.4-.38H27c.31,0,.39.1.39.39C27.39,20.33,27.4,21.08,27.4,21.83Z" style="fill:#fdfdfd"/><path d="M17.73,29c0,3.1,0,6.21,0,9.31,0,.35-.08.45-.44.45-1.76,0-3.53,0-5.29,0-.28,0-.37-.07-.37-.36q0-9.42,0-18.85c0-.26.07-.35.34-.35h5.37c.34,0,.39.13.39.42Q17.73,24.31,17.73,29Z" style="fill:#fdfdfd"/><path d="M18.22,13a3.52,3.52,0,1,1-3.52-3.5A3.54,3.54,0,0,1,18.22,13Z" style="fill:#fdfdfd"/></svg>